#N canvas 827 239 734 565 12;
#X text 238 141 timestretcher;
#X text 238 182 ladder filter;
#X obj 422 520 scope~ 200 100 21 3 128 -1 1 0 0 0 0 90 90 90 227 223 217 150 142 130 0 empty;
#X text 238 231 reverb;
#X obj 116 558 out~;
#X obj 390 397 sig~;
#X obj 183 113 play.file~;
#X obj 304 107 delay 5;
#X obj 135 19 bng 25 250 50 0 empty empty empty 17 7 0 10 #e3dfd9 #5a5a5a #5a5a5a;
#X obj 607 135 bng 25 250 50 0 empty empty empty 17 7 0 10 #e3dfd9 #5a5a5a #5a5a5a;
#X obj 123 501 rev2~;
#X obj 345 458 knob 26 -10000 10000 0 0 empty empty #E3DFD9 #968E82 #5A5A5A 1 0 0 0 1 270 0 0 0 empty empty 0 12 6 -15 0 1 0 0;
#X obj 279 458 knob 26 0 90 0 0 empty empty #E3DFD9 #968E82 #5A5A5A 1 0 0 0 1 270 0 0 0 empty empty 0 12 6 -15 0 1 0 0;
#X obj 245 458 knob 26 0 200 0 99 empty empty #E3DFD9 #968E82 #5A5A5A 1 0 0 0 1 270 0 0 99 empty empty 0 12 6 -15 0 1 0 0;
#X obj 310 458 knob 26 -10000 10000 0 0 empty empty #E3DFD9 #968E82 #5A5A5A 1 0 0 0 1 270 0 0 0 empty empty 0 12 6 -15 0 1 0 0;
#X obj 123 381 lop2~;
#X obj 123 421 lop2~;
#X obj 123 459 lop2~;
#X obj 313 298 nbx 4 18 -1e+37 1e+37 0 0 empty empty empty 0 -8 0 10 #e3dfd9 #5a5a5a #5a5a5a 0 256;
#X obj 540 86 hsl 128 17 0 127 0 0 empty empty empty -2 -8 0 10 #e3dfd9 #5a5a5a #5a5a5a 0 1;
#X obj 523 280 / 127;
#X obj 523 397 * 100;
#X obj 550 476 nbx 4 18 -1e+37 1e+37 0 0 empty empty empty 0 -8 0 10 #e3dfd9 #5a5a5a #5a5a5a 0 256;
#X obj 550 436 -;
#X msg 624 339 100;
#X obj 460 368 +;
#X msg 572 339 500;
#X obj 435 195 / 127;
#X obj 425 278 * 100;
#X obj 352 213 / 127;
#X obj 333 251 * 100;
#X obj 123 336 else/stretch.shift~ 60000 41 -1000;
#X msg 317 67 open voice.m4a;
#X obj 460 327 * 10000;
#X text 659 31 dit is funny!;
#X text 669 41 dit is funny!;
#X text 679 51 dit is funny!;
#X text 689 61 dit is funny!;
#X text 699 71 dit is funny!;
#X text 709 81 dit is funny!;
#X text 719 91 dit is funny!;
#X text 729 101 dit is funny!;
#X text 739 111 dit is funny!;
#X text 749 121 dit is funny!;
#X text 753 1 dit is funny!;
#X text 763 11 dit is funny!;
#X text 773 21 dit is funny!;
#X text 783 31 dit is funny!;
#X text 793 41 dit is funny!;
#X text 803 51 dit is funny!;
#X text 813 61 dit is funny!;
#X text 823 71 dit is funny!;
#X text 833 81 dit is funny!;
#X text 843 91 dit is funny!;
#X connect 5 0 15 1 48.......................6+++O.....v9+++68++++C++++d+++++v+++u2++++;
#X connect 5 0 16 1 32.................B....7v+++u.....O7+++W.....;
#X connect 5 0 17 1 32.................V....7v+++uE....O7+++uB....;
#X connect 6 0 31 0 32.................lA...T7+++uY....E++++yL....;
#X connect 6 1 7 0 48......................7..........O....D9+++eN....g++++mC....5++++;
#X connect 7 0 6 0 48.................X....r7+++OF....K++++S++++Oh++++z++++i3+++O8++++;
#X connect 8 0 6 0 32.................h.....C...fH....v....TD....;
#X connect 8 0 9 0 48.................N....zU...fC....cE...3A....1A...d....fc...vV....;
#X connect 9 0 26 0 32.................ZA...38+++uV....d++++OK....;
#X connect 9 0 24 0 32.................ZA...DA...fV....Q....LK....;
#X connect 10 0 4 0 32.................S....n+++++D....5++++aB....;
#X connect 10 0 2 0 32......................rR.........qD.........;
#X connect 10 1 4 1 32.................S....nB...vD....p....XB....;
#X connect 11 0 10 4 32.................I....P1+++eB....j8+++GA....;
#X connect 12 0 10 2 32.................I....T3+++eB....E9+++GA....;
#X connect 13 0 10 1 32.................I....b4+++eB....W9+++GA....;
#X connect 14 0 10 3 32.................I....X2+++eB....18+++GA....;
#X connect 15 0 16 0 32.................K.........vB.........TA....;
#X connect 16 0 17 0 32.................J.........fB.........LA....;
#X connect 17 0 10 0 32.................L..........C.........bA....;
#X connect 19 0 20 0 32.................YA...L++++eV....y++++GK....;
#X connect 19 0 27 0 32.................e....r4++++G....a9+++yE....;
#X connect 19 0 29 0 32.................k....fz+++eI....H8+++6F....;
#X connect 19 0 9 0 32.................P....XD....D....FA....B....;
#X connect 20 0 21 0 32.................w.........PL.........HF....;
#X connect 20 0 33 0 32.................N....H7+++uC....B++++yA....;
#X connect 21 0 23 1 32.................J....XB...fB....l....PA....;
#X connect 23 0 12 0 32.................B....Hu+++u.....x6+++O.....;
#X connect 23 0 22 0 32.................K.........vB.........TA....;
#X connect 24 0 23 0 32.................Z....b6+++uF....29+++6D....;
#X connect 25 0 5 0 32.................E....r6+++eA....69+++q.....;
#X connect 26 0 25 1 32.................E....v4+++eA....b9+++q.....;
#X connect 27 0 28 0 32.................f....b++++OH....2++++CD....;
#X connect 28 0 31 3 32.................T....z7+++OE....M++++eB....;
#X connect 29 0 30 0 32.................J....39+++uB....t++++OA....;
#X connect 30 0 18 0 32.................N....z9+++uC....s++++yA....;
#X connect 30 0 31 2 32.................g....T8+++eH....U++++KD....;
#X connect 31 0 15 0 32.................M.........PC.........nA....;
#X connect 32 0 6 0 32.................I....r2+++eB....68+++uA....;
#X connect 33 0 25 0 32.................K.........vB.........XA....;
